# xmcd
#
# Track frame offsets:
#	150
#	12058
#	34434
#	53548
#	65918
#	87630
#	102477
#	115339
#	129988
#	144075
#	158945
#	181687
#	197071
#	217398
#	249556
#	266985
#	296091
#
# Disc length: 4445 seconds
#
# Revision: 2
# Processed by: cddbd v1.5.2PL0 Copyright (c) Steve Scherf et al.
# Submitted via: EasyCDDAExtractor 10.2.0.1
#
DISCID=08115b11
DTITLE=Eric Clapton - Crossroads CD 2
DYEAR=1988
DGENRE=Blues
TTITLE0=Anyone For Tennis - Cream
TTITLE1=White Room - Cream
TTITLE2=Crossroads - Cream
TTITLE3=Badge - Cream
TTITLE4=Presence Of The Lord - Blind Faith
TTITLE5=Can't Find My Way Home - Blind Faith
TTITLE6=Sleeping In The Ground - Blind Faith
TTITLE7=Comin' Home - Delaney And Bonnie
TTITLE8=Blues Power - Eric Clapton
TTITLE9=After Midnight - Eric Clapton
TTITLE10=Let It Rain - Eric Clapton
TTITLE11=Tell The Truth - Derek And The Dominos
TTITLE12=Roll It Over - Derek And The Dominos
TTITLE13=Layla - Derek And The Dominos
TTITLE14=Mean Old World - Eric Clapton And Duane Allman
TTITLE15=Key To The Highway - Derek And The Dominos
TTITLE16=Crossroads - Derek And The Dominos
EXTD=
EXTT0=Cream
EXTT1=Cream
EXTT2=Cream
EXTT3=Cream
EXTT4=Blind Faith
EXTT5=Blind Faith
EXTT6=Blind Faith
EXTT7=Delaney and Bonnie
EXTT8=Eric Clapton
EXTT9=Eric Clapton
EXTT10=Eric Clapton
EXTT11=Derek and the Dominos
EXTT12=Derek and the Dominos
EXTT13=Derek and the Dominos
EXTT14=Eric Clapton and Duane Allman
EXTT15=Derek and the Dominos
EXTT16=Derek and the Dominos
PLAYORDER=
